<svg width="1142.3" height="994.4" viewBox="-0.7 -0.2 1142.3 994.4" xmlns="http://www.w3.org/2000/svg" xmlns:xlink="http://www.w3.org/1999/xlink" overflow="hidden"><g id="change1_1"><path d="M1134.38 14.9062C1116.32 10.2344 1098.26 5.5625 1080.2 0.894531 1078.81 0.105469 1077.07-0.226562 1075.07 0.152344 1074.15 0.253906 1073.3 0.507812 1072.54 0.882812 1069.02 2.00781 1065.56 3.27344 1062.11 4.54688 1050.34 8.90625 1038.76 13.6914 1027.35 18.7773 1010.17 26.4258 993.359 34.75 976.867 43.5664 954.688 55.4297 933.094 68.2031 912.074 81.7227 885.816 98.6016 860.422 116.633 835.926 135.605 807.344 157.742 779.992 181.207 753.887 205.781 723.812 234.094 695.395 263.883 668.637 294.867 638.27 330.023 609.949 366.641 583.742 404.504 554.195 447.188 527.297 491.398 502.891 536.727 475.406 587.773 451.047 640.242 429.531 693.637 425.344 704.027 421.273 714.457 417.301 724.918 403.414 714.102 389.527 703.285 375.645 692.473 339.242 664.117 302.844 635.762 266.441 607.406 232.988 581.348 199.535 555.293 166.086 529.234 157.582 522.613 149.078 515.988 140.578 509.367 138.402 507.676 136.504 506.047 133.809 505.035 125.375 501.859 116.645 497.742 107.867 495.52 104.535 494.676 100.344 495.828 96.9727 496.348 91.1016 497.246 85.2305 498.145 79.3594 499.047 75.6602 499.613 70.6562 499.59 67.5703 501.773 65.8711 502.977 65.0664 504.52 64.0547 506.172 54.6758 521.504 45.293 536.836 35.9141 552.168 25.457 569.258 15 586.348 4.53906 603.441 2.10156 607.43-0.695312 610.754 0.15625 615.57 1.14844 621.172 2.35156 626.746 3.44531 632.332 7.64062 653.684 11.832 675.035 16.0234 696.391 17.3164 702.969 18.3242 709.66 19.9102 716.184 20.8398 720.012 23.6836 722.004 27.4688 723.398 30.7734 724.617 34.0781 725.84 37.3672 727.09 38.5391 727.531 39.707 727.977 40.8789 728.426 41.5156 728.672 42.1562 728.914 42.793 729.16 43.1289 729.289 43.4609 729.418 43.793 729.547 43.8477 729.566 43.8828 729.578 43.9258 729.598 47.2383 730.883 50.5469 732.18 53.8516 733.488 72.6133 740.922 91.2148 748.695 109.668 756.75 165.07 780.93 219.258 807.57 271.508 837.074 333.004 871.801 392.277 910.559 444.875 956.082 457.484 966.996 469.668 978.32 481.344 990.078 485.387 994.152 493.77 992.188 495.059 986.758 496.688 979.879 498.531 973.043 500.391 966.215 505.551 947.223 511.16 928.336 517.059 909.531 526.051 880.875 535.75 852.406 546.074 824.133 559.18 788.238 573.301 752.652 588.441 717.438 605.844 676.961 624.625 636.984 644.875 597.637 667.105 554.438 691.098 511.996 717.102 470.602 744.199 427.465 773.484 385.461 805.309 345.117 837.688 304.078 872.789 264.816 910.91 228.141 949.09 191.402 990.312 157.172 1034.84 126.992 1057.33 111.75 1080.62 97.5078 1104.68 84.4375 1110.2 81.4375 1118.49 78.7695 1121.1 73.1641 1121.99 71.2656 1122.63 69.2344 1123.38 67.2891 1126.83 58.3906 1130.28 49.4961 1133.73 40.5977 1135.86 35.1172 1137.98 29.6367 1140.11 24.1562 1141.6 20.3086 1138.4 15.9453 1134.38 14.9062" fill="#268E3C"/></g></svg>