<?xml version="1.0" encoding="UTF-8" standalone="no"?><svg xmlns="http://www.w3.org/2000/svg" xmlns:xlink="http://www.w3.org/1999/xlink" contentScriptType="text/ecmascript" fill="#000000" width="360.5" zoomAndPan="magnify" contentStyleType="text/css" viewBox="-1.2 -0.6 360.5 499.3" height="499.3" preserveAspectRatio="xMidYMid meet" version="1"><defs><clipPath id="a"><path d="M 21 494 L 359.378906 494 L 359.378906 498.78125 L 21 498.78125 Z M 21 494"/></clipPath></defs><g><g><path fill="#f9c4b8" d="M 317.320312 496.488281 L 281.152344 496.488281 L 243.476562 342.300781 C 241.171875 332.875 246.945312 323.367188 256.371094 321.0625 C 265.792969 318.765625 275.300781 324.535156 277.601562 333.960938 L 317.320312 496.488281"/></g><g><path fill="#fcd105" d="M 79.589844 382.675781 C 63.125 360.507812 72.554688 328.539062 72.554688 328.539062 L 94.292969 349.476562 L 79.589844 382.675781"/></g><g><path fill="#fc9705" d="M 257.339844 495.101562 L 107.722656 494.78125 L 114.117188 317.667969 L 196.917969 297.207031 L 268.851562 316.070312 L 257.339844 495.101562"/></g><g><path fill="#433fab" d="M 127.863281 150.464844 C 137.453125 136.558594 150.175781 125.0625 166.226562 117.855469 C 189.726562 107.304688 210.824219 102.03125 237.679688 120.730469 C 264.535156 139.433594 262.804688 135.722656 273.164062 141.351562 C 295.226562 153.34375 288.992188 162.453125 295.226562 183.074219 C 301.460938 203.695312 316.324219 194.105469 319.683594 209.929688 C 323.039062 225.753906 323.519531 252.128906 323.519531 252.128906 C 323.519531 252.128906 298.582031 269.871094 280.359375 275.628906 C 265.613281 280.285156 223.292969 290.972656 223.292969 290.972656 L 127.863281 150.464844"/></g><g><path fill="#433fab" d="M 132.65625 147.585938 C 109.640625 154.78125 106.761719 161.972656 102.445312 178.757812 C 98.128906 195.542969 88.058594 195.542969 81.347656 205.132812 C 74.632812 214.726562 87.101562 230.070312 83.265625 239.660156 C 79.429688 249.253906 76.070312 244.457031 66 258.363281 C 55.929688 272.269531 76.070312 317.828125 76.070312 317.828125 C 76.070312 317.828125 115.875 313.03125 147.046875 305.839844 C 171.96875 300.085938 221.855469 283.300781 221.855469 283.300781 L 179.175781 148.546875 L 132.65625 147.585938"/></g><g><path fill="#efb4ad" d="M 194.050781 328.683594 C 192.425781 328.683594 190.78125 328.457031 189.144531 327.984375 C 179.824219 325.277344 174.46875 315.535156 177.171875 306.21875 L 185.804688 276.484375 C 188.507812 267.167969 198.253906 261.808594 207.570312 264.511719 C 216.886719 267.21875 222.246094 276.964844 219.539062 286.28125 L 210.910156 316.011719 C 208.679688 323.691406 201.664062 328.683594 194.050781 328.683594"/></g><g clip-path="url(#a)"><path fill="#0d0845" d="M 357.085938 498.78125 L 23.421875 498.78125 C 22.160156 498.78125 21.132812 497.753906 21.132812 496.488281 C 21.132812 495.222656 22.160156 494.199219 23.421875 494.199219 L 357.085938 494.199219 C 358.351562 494.199219 359.378906 495.222656 359.378906 496.488281 C 359.378906 497.753906 358.351562 498.78125 357.085938 498.78125"/></g><g><path fill="#efb4ad" d="M 289.949219 218.082031 C 289.949219 258.339844 257.316406 290.972656 217.058594 290.972656 C 176.800781 290.972656 144.167969 258.339844 144.167969 218.082031 C 144.167969 177.824219 176.800781 145.1875 217.058594 145.1875 C 257.316406 145.1875 289.949219 177.824219 289.949219 218.082031"/></g><g><path fill="#efb4ad" d="M 160.929688 241.105469 C 169.054688 248.175781 170.28125 260.0625 163.671875 267.652344 C 157.0625 275.242188 145.117188 275.664062 136.996094 268.589844 C 128.871094 261.515625 127.644531 249.628906 134.257812 242.039062 C 140.863281 234.449219 152.808594 234.03125 160.929688 241.105469"/></g><g><path fill="#2c2c2d" d="M 250.21875 194.761719 C 252.539062 200.515625 251.59375 206.316406 248.113281 207.71875 C 244.628906 209.121094 239.925781 205.597656 237.609375 199.84375 C 235.289062 194.085938 236.234375 188.285156 239.714844 186.882812 C 243.199219 185.476562 247.902344 189.007812 250.21875 194.761719"/></g><g><path fill="#2c2c2d" d="M 212.96875 214.648438 C 215.222656 220.25 214.304688 225.898438 210.914062 227.261719 C 207.523438 228.628906 202.949219 225.195312 200.691406 219.59375 C 198.433594 213.996094 199.351562 208.347656 202.742188 206.980469 C 206.132812 205.617188 210.710938 209.046875 212.96875 214.648438"/></g><g><path fill="#2c2c2d" d="M 238.796875 234.640625 C 238.6875 234.640625 238.574219 234.605469 238.472656 234.539062 C 238.214844 234.359375 238.148438 234.003906 238.324219 233.742188 C 240.246094 230.949219 245.121094 223.050781 244.628906 220.09375 C 244.453125 219.058594 243.410156 218.847656 241.0625 218.472656 C 237.289062 217.871094 231.59375 216.960938 225.582031 210.148438 C 225.371094 209.910156 225.394531 209.550781 225.632812 209.339844 C 225.867188 209.128906 226.230469 209.152344 226.441406 209.390625 C 232.179688 215.894531 237.632812 216.765625 241.242188 217.34375 C 243.589844 217.71875 245.441406 218.011719 245.757812 219.90625 C 246.425781 223.925781 239.5625 233.964844 239.269531 234.390625 C 239.160156 234.550781 238.980469 234.640625 238.796875 234.640625"/></g><g><path fill="#36334c" d="M 217.890625 203.683594 L 216.230469 202.746094 C 221.300781 193.78125 227.675781 194.871094 227.945312 194.925781 L 227.589844 196.800781 C 227.382812 196.765625 222.253906 195.980469 217.890625 203.683594"/></g><g><path fill="#36334c" d="M 145.125 237.257812 C 144.652344 237.257812 144.238281 236.90625 144.179688 236.421875 C 144.113281 235.898438 144.484375 235.421875 145.007812 235.355469 L 175.699219 231.519531 C 176.222656 231.457031 176.699219 231.824219 176.765625 232.351562 C 176.828125 232.871094 176.460938 233.351562 175.9375 233.414062 L 145.246094 237.25 C 145.203125 237.257812 145.164062 237.257812 145.125 237.257812"/></g><g><path fill="#36334c" d="M 156.957031 263.09375 C 156.757812 263.09375 156.5625 262.988281 156.460938 262.804688 C 156.390625 262.683594 149.386719 250.621094 142.3125 249.890625 C 140.164062 249.664062 138.191406 250.546875 136.441406 252.511719 C 136.230469 252.746094 135.871094 252.769531 135.632812 252.558594 C 135.398438 252.347656 135.378906 251.984375 135.585938 251.746094 C 137.59375 249.496094 139.894531 248.484375 142.433594 248.75 C 150.089844 249.542969 157.15625 261.71875 157.453125 262.234375 C 157.609375 262.507812 157.515625 262.859375 157.242188 263.015625 C 157.152344 263.066406 157.054688 263.09375 156.957031 263.09375"/></g><g><path fill="#36334c" d="M 142.089844 257.496094 C 141.957031 257.496094 141.824219 257.453125 141.71875 257.363281 C 141.476562 257.15625 141.449219 256.796875 141.652344 256.554688 C 144.484375 253.222656 148.875 252.699219 149.058594 252.679688 C 149.371094 252.644531 149.65625 252.871094 149.691406 253.183594 C 149.726562 253.496094 149.5 253.78125 149.1875 253.816406 C 149.144531 253.824219 145.058594 254.316406 142.527344 257.296875 C 142.410156 257.429688 142.25 257.496094 142.089844 257.496094"/></g><g><path fill="#2c2c2d" d="M 236.699219 248.929688 C 234.617188 248.929688 232.386719 248.515625 230.21875 247.359375 C 229.9375 247.210938 229.832031 246.863281 229.980469 246.585938 C 230.128906 246.304688 230.476562 246.199219 230.757812 246.347656 C 237.574219 249.984375 245.464844 245.445312 245.542969 245.402344 C 245.816406 245.242188 246.164062 245.332031 246.324219 245.605469 C 246.484375 245.878906 246.394531 246.226562 246.121094 246.390625 C 245.878906 246.53125 241.726562 248.929688 236.699219 248.929688"/></g><g><path fill="#2c2c2d" d="M 237.570312 255.683594 C 236.386719 255.683594 234.871094 255.445312 233.386719 254.535156 C 233.117188 254.371094 233.03125 254.019531 233.195312 253.746094 C 233.359375 253.480469 233.714844 253.394531 233.984375 253.558594 C 236.589844 255.152344 239.398438 254.308594 239.425781 254.300781 C 239.730469 254.207031 240.050781 254.375 240.144531 254.675781 C 240.238281 254.976562 240.070312 255.296875 239.769531 255.394531 C 239.699219 255.414062 238.824219 255.683594 237.570312 255.683594"/></g><g><path fill="#433fab" d="M 160.050781 229.371094 C 162.082031 239.589844 160.914062 248.78125 155.410156 250.402344 C 149.90625 252.023438 143.703125 245.023438 140.113281 235.242188 C 134.574219 220.160156 139.25 215.835938 144.753906 214.214844 C 150.257812 212.59375 154.078125 199.378906 160.050781 229.371094"/></g><g><path fill="#433fab" d="M 209.386719 151.425781 C 209.386719 151.425781 224.800781 152.371094 235 156.109375 C 243.78125 150.816406 249.667969 147.585938 249.667969 147.585938 C 249.667969 147.585938 233.246094 138.515625 203.3125 138.636719 C 195.539062 138.667969 183.449219 143.476562 176.578125 147.105469 C 166.453125 152.449219 152.210938 161.996094 144.167969 176.359375 C 130.738281 200.339844 138.09375 222.71875 138.09375 222.71875 C 138.09375 222.71875 173.898438 203.214844 200.753906 183.074219 C 210.230469 175.964844 215.78125 171.566406 224.144531 162.816406 L 209.386719 151.425781"/></g><g><path fill="#433fab" d="M 229.421875 159.136719 C 229.324219 159.136719 229.226562 159.113281 229.136719 159.058594 C 229.078125 159.027344 223.238281 155.738281 208.171875 151.65625 C 207.867188 151.574219 207.683594 151.261719 207.769531 150.953125 C 207.851562 150.648438 208.164062 150.46875 208.472656 150.550781 C 223.710938 154.679688 229.46875 157.929688 229.707031 158.066406 C 229.980469 158.226562 230.074219 158.574219 229.917969 158.847656 C 229.8125 159.03125 229.617188 159.136719 229.421875 159.136719"/></g><g><path fill="#433fab" d="M 75.246094 315.804688 C 74.511719 314.40625 57.277344 281.488281 56.214844 271.265625 C 55.199219 261.539062 58.863281 257.988281 66.894531 250.207031 C 67.550781 249.570312 68.238281 248.902344 68.957031 248.203125 C 70.375 246.816406 71.632812 245.644531 72.738281 244.613281 C 78.863281 238.90625 80.136719 237.71875 78.386719 228.257812 C 77.726562 224.699219 76.75 221.710938 75.886719 219.070312 C 73.972656 213.210938 72.460938 208.582031 76.113281 202.492188 C 79.136719 197.457031 84.46875 193.246094 89.175781 189.53125 C 92.472656 186.925781 95.589844 184.464844 97.242188 182.203125 C 99.03125 179.757812 98.960938 177.246094 98.878906 174.339844 C 98.785156 170.941406 98.679688 167.089844 101.476562 162.425781 C 108.402344 150.878906 117.121094 146.457031 129.746094 148.085938 L 129.601562 149.222656 C 117.324219 147.636719 109.210938 151.761719 102.457031 163.015625 C 99.832031 167.390625 99.933594 171.066406 100.023438 174.308594 C 100.105469 177.296875 100.183594 180.117188 98.167969 182.878906 C 96.421875 185.265625 93.246094 187.773438 89.882812 190.429688 C 85.253906 194.082031 80.011719 198.226562 77.09375 203.082031 C 73.710938 208.722656 75.082031 212.914062 76.976562 218.714844 C 77.847656 221.386719 78.839844 224.414062 79.511719 228.046875 C 81.378906 238.128906 79.714844 239.679688 73.519531 245.453125 C 72.417969 246.480469 71.167969 247.644531 69.757812 249.023438 C 69.039062 249.726562 68.351562 250.390625 67.691406 251.03125 C 59.703125 258.769531 56.398438 261.976562 57.351562 271.144531 C 58.394531 281.152344 76.082031 314.929688 76.257812 315.269531 L 75.246094 315.804688"/></g><g><path fill="#433fab" d="M 323.238281 251.824219 L 322.09375 251.792969 C 322.097656 251.671875 322.425781 239.382812 323.375 221.832031 C 324.332031 204.089844 321.738281 200.753906 315.132812 196.890625 C 312.664062 195.449219 310.574219 194.703125 308.546875 193.980469 C 303.628906 192.230469 299.378906 190.71875 292.820312 180.015625 L 293.796875 179.417969 C 300.144531 189.777344 304.023438 191.15625 308.933594 192.902344 C 311.007812 193.640625 313.152344 194.40625 315.710938 195.898438 C 323.136719 200.242188 325.453125 204.609375 324.519531 221.894531 C 323.570312 239.425781 323.242188 251.703125 323.238281 251.824219"/></g><g><path fill="#f26375" d="M 218.65625 245.257812 C 218.65625 250.769531 213.863281 255.238281 207.949219 255.238281 C 202.03125 255.238281 197.238281 250.769531 197.238281 245.257812 C 197.238281 239.742188 202.03125 235.273438 207.949219 235.273438 C 213.863281 235.273438 218.65625 239.742188 218.65625 245.257812"/></g><g><path fill="#f26375" d="M 267.570312 215.203125 C 267.570312 220.058594 263.351562 223.996094 258.140625 223.996094 C 252.933594 223.996094 248.710938 220.058594 248.710938 215.203125 C 248.710938 210.347656 252.933594 206.410156 258.140625 206.410156 C 263.351562 206.410156 267.570312 210.347656 267.570312 215.203125"/></g><g><path fill="#36334c" d="M 250.308594 166.285156 C 237.878906 166.285156 227.765625 176.398438 227.765625 188.828125 C 227.765625 201.257812 237.878906 211.371094 250.308594 211.371094 C 262.738281 211.371094 272.851562 201.257812 272.851562 188.828125 C 272.851562 176.398438 262.738281 166.285156 250.308594 166.285156 Z M 250.308594 213.28125 C 236.824219 213.28125 225.855469 202.3125 225.855469 188.828125 C 225.855469 175.347656 236.824219 164.375 250.308594 164.375 C 263.789062 164.375 274.761719 175.347656 274.761719 188.828125 C 274.761719 202.3125 263.789062 213.28125 250.308594 213.28125"/></g><g><path fill="#36334c" d="M 197.398438 195.539062 C 184.175781 195.539062 173.414062 206.296875 173.414062 219.519531 C 173.414062 232.742188 184.175781 243.503906 197.398438 243.503906 C 210.621094 243.503906 221.378906 232.742188 221.378906 219.519531 C 221.378906 206.296875 210.621094 195.539062 197.398438 195.539062 Z M 197.398438 245.410156 C 183.121094 245.410156 171.507812 233.796875 171.507812 219.519531 C 171.507812 205.242188 183.121094 193.628906 197.398438 193.628906 C 211.675781 193.628906 223.289062 205.242188 223.289062 219.519531 C 223.289062 233.796875 211.675781 245.410156 197.398438 245.410156"/></g><g><path fill="#2c2c2d" d="M 216.417969 291.648438 C 211.210938 291.648438 194.644531 291.070312 183.664062 284.105469 C 183.394531 283.933594 183.316406 283.582031 183.488281 283.3125 C 183.65625 283.046875 184.011719 282.964844 184.277344 283.136719 C 197.078125 291.253906 217.785156 290.488281 217.992188 290.480469 C 218.308594 290.46875 218.578125 290.714844 218.589844 291.027344 C 218.605469 291.34375 218.359375 291.613281 218.042969 291.625 C 218.007812 291.628906 217.425781 291.648438 216.417969 291.648438"/></g><g><path fill="#f9c4b8" d="M 17.570312 385.109375 C 12.046875 385.109375 6.707031 382.496094 3.339844 377.84375 C -1.167969 371.621094 -1.105469 363.195312 3.488281 357.035156 L 95.5625 233.632812 C 101.363281 225.855469 112.367188 224.257812 120.144531 230.058594 C 127.921875 235.859375 129.519531 246.867188 123.71875 254.640625 L 65.246094 333.011719 L 105.328125 319.558594 C 114.527344 316.472656 124.484375 321.425781 127.570312 330.621094 C 130.65625 339.820312 125.703125 349.777344 116.507812 352.863281 L 23.15625 384.195312 C 21.316406 384.8125 19.433594 385.109375 17.570312 385.109375"/></g><g><path fill="#0d0845" d="M 137.40625 266.679688 L 129.828125 265.710938 L 142.164062 169.074219 L 149.742188 170.039062 L 137.40625 266.679688"/></g><g><path fill="#fdfcfb" d="M 145.730469 170.703125 L 145.246094 170.628906 C 143.230469 170.320312 141.835938 168.414062 142.148438 166.402344 L 143.167969 159.78125 C 143.476562 157.765625 145.382812 156.371094 147.398438 156.679688 L 147.878906 156.753906 C 149.894531 157.066406 151.289062 158.96875 150.980469 160.984375 L 149.960938 167.605469 C 149.648438 169.621094 147.746094 171.015625 145.730469 170.703125"/></g><g><path fill="#e8edfd" d="M 149.074219 179.277344 L 140.484375 178.339844 L 141.644531 167.695312 L 150.234375 168.632812 L 149.074219 179.277344"/></g><g><path fill="#f9c4b8" d="M 155.035156 230.710938 C 155.035156 245.539062 133.421875 255.007812 118.59375 255.007812 C 103.761719 255.007812 86.941406 249.253906 94.613281 226.554688 C 101.863281 205.101562 110.152344 198.421875 124.984375 198.421875 C 139.816406 198.421875 155.035156 215.878906 155.035156 230.710938"/></g><g><path fill="#f9c4b8" d="M 112.84375 215.394531 C 110.476562 215.394531 108.167969 214.207031 106.828125 212.050781 C 104.777344 208.730469 105.800781 204.378906 109.117188 202.324219 C 123.988281 193.117188 146.832031 192.347656 147.796875 192.316406 C 151.695312 192.207031 154.949219 195.269531 155.066406 199.171875 C 155.179688 203.070312 152.113281 206.324219 148.210938 206.441406 C 148.019531 206.445312 128.171875 207.144531 116.554688 214.335938 C 115.398438 215.054688 114.113281 215.394531 112.84375 215.394531"/></g><g><path fill="#f9c4b8" d="M 124.976562 221.789062 C 121.664062 221.789062 118.710938 219.449219 118.050781 216.078125 C 117.304688 212.246094 119.804688 208.539062 123.632812 207.789062 L 149.847656 202.675781 C 153.675781 201.929688 157.386719 204.425781 158.136719 208.257812 C 158.882812 212.085938 156.382812 215.796875 152.554688 216.542969 L 126.339844 221.65625 C 125.882812 221.746094 125.425781 221.789062 124.976562 221.789062"/></g><g><path fill="#f9c4b8" d="M 131.695312 235.855469 C 128.578125 235.855469 125.730469 233.78125 124.878906 230.632812 C 123.863281 226.863281 126.09375 222.988281 129.859375 221.972656 L 150 216.535156 C 153.769531 215.519531 157.644531 217.75 158.660156 221.515625 C 159.675781 225.28125 157.449219 229.160156 153.679688 230.175781 L 133.539062 235.613281 C 132.921875 235.777344 132.304688 235.855469 131.695312 235.855469"/></g><g><path fill="#f9c4b8" d="M 136.808594 246.089844 C 133.671875 246.089844 130.808594 243.984375 129.980469 240.804688 C 128.992188 237.03125 131.257812 233.171875 135.03125 232.1875 L 149.738281 228.351562 C 153.511719 227.367188 157.371094 229.625 158.355469 233.402344 C 159.339844 237.175781 157.078125 241.035156 153.304688 242.019531 L 138.597656 245.855469 C 138 246.011719 137.398438 246.089844 136.808594 246.089844"/></g><g><path fill="#f9c4b8" d="M 110.605469 217.953125 C 108.421875 217.953125 106.269531 216.945312 104.886719 215.042969 C 102.589844 211.886719 103.289062 207.46875 106.445312 205.175781 C 106.550781 205.097656 119.035156 195.753906 125.796875 179.132812 C 127.265625 175.519531 131.386719 173.78125 135 175.25 C 138.613281 176.722656 140.351562 180.84375 138.882812 184.457031 C 130.546875 204.949219 115.394531 216.136719 114.753906 216.601562 C 113.5 217.515625 112.046875 217.953125 110.605469 217.953125"/></g><g><path fill="#36334c" d="M 56.25 347.015625 C 56.140625 347.015625 56.03125 346.984375 55.933594 346.917969 C 55.667969 346.742188 55.597656 346.386719 55.773438 346.121094 L 66.644531 329.820312 C 66.816406 329.554688 67.171875 329.484375 67.4375 329.660156 C 67.699219 329.835938 67.773438 330.191406 67.597656 330.453125 L 56.726562 346.757812 C 56.617188 346.925781 56.433594 347.015625 56.25 347.015625"/></g><g><path fill="#fc9705" d="M 79.589844 382.675781 C 82.929688 363.019531 79.539062 345.816406 72.554688 328.535156 C 72.554688 328.535156 76.605469 327.074219 88.148438 323.820312 C 88.511719 323.722656 88.875 323.613281 89.253906 323.511719 C 93.398438 322.351562 98.441406 320.976562 104.523438 319.371094 L 106.570312 318.898438 L 107.6875 318.644531 L 135.003906 312.339844 L 162.074219 359.867188 L 79.589844 382.675781"/></g><g><path fill="#fc9705" d="M 293.308594 378.25 L 258.617188 397.273438 L 268.847656 316.070312 C 273.984375 321.570312 281.277344 341.214844 286.558594 356.96875 C 286.683594 357.332031 286.800781 357.695312 286.921875 358.054688 C 288.515625 362.835938 289.910156 367.210938 290.984375 370.65625 C 291.105469 371.03125 291.21875 371.398438 291.328125 371.746094 C 292.570312 375.753906 293.308594 378.25 293.308594 378.25"/></g><g><path fill="#2c2c2d" d="M 261.179688 433.972656 C 260.835938 433.957031 260.589844 433.6875 260.605469 433.371094 L 263.960938 363.359375 C 263.976562 363.039062 264.238281 362.800781 264.5625 362.8125 C 264.878906 362.828125 265.121094 363.097656 265.105469 363.414062 L 261.75 433.425781 C 261.734375 433.734375 261.484375 433.972656 261.179688 433.972656"/></g><g><path fill="#2c2c2d" d="M 79.589844 383.246094 C 79.335938 383.246094 79.101562 383.078125 79.035156 382.820312 C 78.953125 382.515625 79.132812 382.203125 79.441406 382.121094 L 121.640625 370.824219 C 121.945312 370.746094 122.261719 370.925781 122.34375 371.230469 C 122.425781 371.535156 122.242188 371.847656 121.9375 371.929688 L 79.734375 383.226562 C 79.6875 383.242188 79.636719 383.246094 79.589844 383.246094"/></g><g><path fill="#36334c" d="M 119.550781 198.671875 C 119.320312 198.671875 119.101562 198.53125 119.015625 198.304688 C 118.902344 198.007812 119.050781 197.675781 119.347656 197.5625 C 119.441406 197.527344 128.753906 194.015625 136.078125 192.738281 C 143.363281 191.472656 145.417969 192.050781 145.628906 192.121094 C 145.929688 192.222656 146.089844 192.546875 145.988281 192.847656 C 145.890625 193.144531 145.566406 193.308594 145.265625 193.207031 C 145.253906 193.207031 143.265625 192.652344 136.273438 193.867188 C 129.058594 195.121094 119.847656 198.601562 119.753906 198.636719 C 119.6875 198.660156 119.617188 198.671875 119.550781 198.671875"/></g><g><path fill="#e8edfd" d="M 173.5 482.476562 C 172.859375 482.476562 172.21875 482.230469 171.734375 481.742188 C 166.867188 476.8125 152.558594 463.808594 144.925781 462.820312 C 131.183594 461.039062 122.308594 466.503906 113.730469 471.789062 C 108.433594 475.054688 103.429688 478.136719 97.453125 479.605469 C 96.820312 479.761719 96.179688 479.933594 95.535156 480.105469 C 88.035156 482.105469 78.695312 484.589844 64.925781 468.765625 C 64.027344 467.730469 64.136719 466.164062 65.171875 465.261719 C 66.207031 464.363281 67.773438 464.472656 68.671875 465.507812 C 80.410156 478.996094 87.136719 477.207031 94.257812 475.308594 C 94.933594 475.125 95.601562 474.949219 96.269531 474.785156 C 101.492188 473.5 106.171875 470.617188 111.125 467.566406 C 120.007812 462.09375 130.074219 455.890625 145.5625 457.898438 C 156.265625 459.285156 173.351562 476.316406 175.265625 478.25 C 176.230469 479.226562 176.21875 480.796875 175.242188 481.761719 C 174.761719 482.238281 174.128906 482.476562 173.5 482.476562"/></g><g><path fill="#fb7682" d="M 171.183594 494.148438 L 56.410156 494.148438 L 56.410156 488.394531 L 171.183594 488.394531 L 171.183594 494.148438"/></g><g><path fill="#e8edfd" d="M 177.816406 488.394531 L 58.007812 488.394531 L 58.007812 478.484375 L 177.816406 478.484375 L 177.816406 488.394531"/></g><g><path fill="#93a5f4" d="M 103.886719 483.207031 L 59.605469 483.207031 C 59.289062 483.207031 59.035156 482.949219 59.035156 482.632812 C 59.035156 482.316406 59.289062 482.0625 59.605469 482.0625 L 103.886719 482.0625 C 104.199219 482.0625 104.457031 482.316406 104.457031 482.632812 C 104.457031 482.949219 104.199219 483.207031 103.886719 483.207031"/></g><g><path fill="#93a5f4" d="M 118.429688 486.722656 L 75.910156 486.722656 C 75.59375 486.722656 75.339844 486.46875 75.339844 486.152344 C 75.339844 485.832031 75.59375 485.578125 75.910156 485.578125 L 118.429688 485.578125 C 118.746094 485.578125 119.003906 485.832031 119.003906 486.152344 C 119.003906 486.46875 118.746094 486.722656 118.429688 486.722656"/></g><g><path fill="#e8edfd" d="M 181.332031 482.320312 C 180.703125 482.320312 180.074219 482.082031 179.589844 481.601562 C 178.613281 480.640625 178.605469 479.066406 179.566406 478.09375 C 181.464844 476.171875 198.40625 459.285156 209.109375 457.898438 C 224.601562 455.886719 234.664062 462.09375 243.546875 467.566406 C 248.503906 470.617188 253.183594 473.5 258.402344 474.785156 C 259.070312 474.949219 259.738281 475.125 260.414062 475.308594 C 267.535156 477.203125 274.261719 478.996094 286 465.507812 C 286.898438 464.472656 288.46875 464.363281 289.503906 465.261719 C 290.535156 466.164062 290.644531 467.730469 289.746094 468.765625 C 275.976562 484.589844 266.640625 482.101562 259.136719 480.105469 C 258.492188 479.933594 257.855469 479.761719 257.21875 479.605469 C 251.242188 478.136719 246.238281 475.054688 240.941406 471.789062 C 232.363281 466.503906 223.488281 461.039062 209.75 462.820312 C 202.105469 463.8125 187.917969 476.699219 183.097656 481.582031 C 182.613281 482.070312 181.972656 482.320312 181.332031 482.320312"/></g><g><path fill="#fb7682" d="M 183.890625 494.148438 L 298.261719 494.148438 L 298.261719 488.394531 L 183.890625 488.394531 L 183.890625 494.148438"/></g><g><path fill="#e8edfd" d="M 177.628906 488.394531 L 296.664062 488.394531 L 296.664062 478.484375 L 177.628906 478.484375 L 177.628906 488.394531"/></g><g><path fill="#93a5f4" d="M 295.066406 483.207031 L 250.785156 483.207031 C 250.472656 483.207031 250.214844 482.949219 250.214844 482.632812 C 250.214844 482.316406 250.472656 482.0625 250.785156 482.0625 L 295.066406 482.0625 C 295.382812 482.0625 295.640625 482.316406 295.640625 482.632812 C 295.640625 482.949219 295.382812 483.207031 295.066406 483.207031"/></g><g><path fill="#93a5f4" d="M 278.761719 486.722656 L 236.242188 486.722656 C 235.925781 486.722656 235.667969 486.46875 235.667969 486.152344 C 235.667969 485.832031 235.925781 485.578125 236.242188 485.578125 L 278.761719 485.578125 C 279.078125 485.578125 279.335938 485.832031 279.335938 486.152344 C 279.335938 486.46875 279.078125 486.722656 278.761719 486.722656"/></g><g><path fill="#fb7682" d="M 171.183594 494.148438 C 177.894531 482.953125 183.890625 494.148438 183.890625 494.148438 L 183.890625 488.394531 L 171.183594 488.394531 L 171.183594 494.148438"/></g><g><path fill="#fb7682" d="M 184.847656 494.1875 L 170.304688 494.1875 L 170.304688 492.429688 L 184.847656 492.429688 L 184.847656 494.1875"/></g><g><path fill="#433fab" d="M 208.367188 468.3125 L 207.757812 468.3125 C 202.828125 468.3125 198.835938 472.300781 198.835938 477.230469 L 198.835938 485.285156 C 198.835938 490.210938 202.828125 494.207031 207.757812 494.207031 L 328.792969 494.207031 L 328.792969 468.3125 L 208.367188 468.3125"/></g><g><path fill="#433fab" d="M 326.476562 471.804688 C 325.527344 471.804688 324.761719 471.035156 324.757812 470.085938 C 324.757812 469.140625 325.527344 468.367188 326.472656 468.367188 L 350.851562 468.328125 C 351.800781 468.328125 352.570312 469.097656 352.574219 470.042969 C 352.574219 470.992188 351.804688 471.765625 350.855469 471.765625 L 326.480469 471.804688 C 326.480469 471.804688 326.476562 471.804688 326.476562 471.804688"/></g><g><path fill="#433fab" d="M 351.332031 494.226562 L 326.078125 494.226562 C 325.128906 494.226562 324.359375 493.457031 324.359375 492.507812 C 324.359375 491.558594 325.128906 490.789062 326.078125 490.789062 L 351.332031 490.789062 C 352.28125 490.789062 353.050781 491.558594 353.050781 492.507812 C 353.050781 493.457031 352.28125 494.226562 351.332031 494.226562"/></g><g><path fill="#fcd105" d="M 226.640625 494.207031 L 215.90625 494.207031 C 213.226562 485.785156 213.21875 476.734375 215.894531 468.3125 L 226.621094 468.3125 C 223.066406 476.578125 223.070312 485.941406 226.640625 494.207031"/></g><g><path fill="#fcd105" d="M 210.976562 494.207031 C 207.40625 485.941406 207.402344 476.578125 210.957031 468.3125 L 208.367188 468.3125 C 205.070312 476.625 205.078125 485.890625 208.386719 494.207031 L 210.976562 494.207031"/></g><g><path fill="#fcd105" d="M 310.191406 494.207031 L 299.457031 494.207031 C 296.777344 485.785156 296.769531 476.734375 299.441406 468.3125 L 310.171875 468.3125 C 306.617188 476.578125 306.621094 485.941406 310.191406 494.207031"/></g><g><path fill="#fcd105" d="M 294.527344 494.207031 C 290.953125 485.941406 290.953125 476.578125 294.507812 468.3125 L 291.914062 468.3125 C 288.617188 476.625 288.625 485.890625 291.933594 494.207031 L 294.527344 494.207031"/></g><g><path fill="#e8edfd" d="M 350.953125 490.785156 L 333.589844 490.785156 C 328.734375 490.785156 324.796875 486.851562 324.796875 481.996094 L 324.796875 480.554688 C 324.796875 475.699219 328.734375 471.765625 333.589844 471.765625 L 350.953125 471.765625 L 350.953125 490.785156"/></g><g><path fill="#433fab" d="M 349.628906 477.453125 L 331.300781 477.453125 C 330.984375 477.453125 330.726562 477.195312 330.726562 476.878906 C 330.726562 476.5625 330.984375 476.304688 331.300781 476.304688 L 349.628906 476.304688 C 349.945312 476.304688 350.199219 476.5625 350.199219 476.878906 C 350.199219 477.195312 349.945312 477.453125 349.628906 477.453125"/></g><g><path fill="#433fab" d="M 349.414062 482.140625 L 340.464844 482.140625 C 340.148438 482.140625 339.890625 481.882812 339.890625 481.566406 C 339.890625 481.25 340.148438 480.996094 340.464844 480.996094 L 349.414062 480.996094 C 349.730469 480.996094 349.988281 481.25 349.988281 481.566406 C 349.988281 481.882812 349.730469 482.140625 349.414062 482.140625"/></g><g><path fill="#e8edfd" d="M 337.265625 466.738281 L 214.023438 466.738281 L 214.023438 448.035156 L 337.265625 448.035156 L 337.265625 466.738281"/></g><g><path fill="#36334c" d="M 339.738281 468.457031 L 212.582031 468.457031 C 211.632812 468.457031 210.867188 467.6875 210.867188 466.738281 C 210.867188 465.789062 211.632812 465.019531 212.582031 465.019531 L 337.972656 465.019531 C 341.828125 459.308594 341.832031 453.757812 337.976562 448.089844 L 212.582031 448.089844 C 211.632812 448.089844 210.867188 447.324219 210.867188 446.371094 C 210.867188 445.425781 211.632812 444.65625 212.582031 444.65625 L 339.734375 444.65625 L 340.25 445.355469 C 345.691406 452.757812 345.691406 460.289062 340.253906 467.75 L 339.738281 468.457031"/></g><g><path fill="#433fab" d="M 274.820312 464.851562 C 274.503906 464.851562 274.246094 464.59375 274.246094 464.277344 L 274.246094 448.71875 C 274.246094 448.402344 274.503906 448.144531 274.820312 448.144531 C 275.136719 448.144531 275.390625 448.402344 275.390625 448.71875 L 275.390625 464.277344 C 275.390625 464.59375 275.136719 464.851562 274.820312 464.851562"/></g><g><path fill="#433fab" d="M 239.4375 451.238281 L 215.460938 451.238281 C 215.144531 451.238281 214.886719 450.980469 214.886719 450.664062 C 214.886719 450.347656 215.144531 450.089844 215.460938 450.089844 L 239.4375 450.089844 C 239.753906 450.089844 240.011719 450.347656 240.011719 450.664062 C 240.011719 450.980469 239.753906 451.238281 239.4375 451.238281"/></g><g><path fill="#433fab" d="M 244.234375 454.113281 L 220.894531 454.113281 C 220.578125 454.113281 220.324219 453.855469 220.324219 453.539062 C 220.324219 453.226562 220.578125 452.96875 220.894531 452.96875 L 244.234375 452.96875 C 244.550781 452.96875 244.808594 453.226562 244.808594 453.539062 C 244.808594 453.855469 244.550781 454.113281 244.234375 454.113281"/></g><g><path fill="#fb7682" d="M 343.03125 422.136719 C 341.320312 434.847656 332.363281 447.894531 322.347656 443.203125 C 312.96875 448.320312 303.230469 434.105469 301.324219 421.660156 C 299.421875 409.210938 304.871094 393.96875 322.347656 402.070312 C 341.742188 394.183594 344.746094 409.425781 343.03125 422.136719"/></g><g><path fill="#fdfcfb" d="M 338.972656 409.664062 C 340.117188 413.253906 339.132812 416.769531 336.777344 417.519531 C 334.421875 418.269531 331.585938 415.96875 330.445312 412.375 C 329.300781 408.789062 330.285156 405.269531 332.640625 404.523438 C 334.996094 403.773438 337.832031 406.074219 338.972656 409.664062"/></g><g><path fill="#fdfcfb" d="M 340.25 421.25 C 340.25 422.488281 339.390625 423.488281 338.332031 423.488281 C 337.273438 423.488281 336.414062 422.488281 336.414062 421.25 C 336.414062 420.015625 337.273438 419.011719 338.332031 419.011719 C 339.390625 419.011719 340.25 420.015625 340.25 421.25"/></g><g><path fill="#36334c" d="M 322.34375 403.789062 C 321.527344 403.789062 320.800781 403.199219 320.65625 402.363281 C 319.761719 397.25 320.609375 386.53125 330.21875 382.578125 C 331.09375 382.214844 332.101562 382.632812 332.460938 383.511719 C 332.824219 384.390625 332.40625 385.394531 331.527344 385.753906 C 322.042969 389.660156 324.019531 401.652344 324.039062 401.773438 C 324.203125 402.707031 323.578125 403.597656 322.644531 403.761719 C 322.542969 403.78125 322.445312 403.789062 322.34375 403.789062"/></g><g><path fill="#36334c" d="M 318.789062 380.671875 C 322.882812 385.183594 321.820312 392.816406 321.820312 392.816406 C 321.820312 392.816406 314.121094 393.132812 310.027344 388.621094 C 305.933594 384.109375 306.996094 376.476562 306.996094 376.476562 C 306.996094 376.476562 314.695312 376.160156 318.789062 380.671875"/></g><g><path fill="#2c2c2d" d="M 189.5625 209.703125 C 189.304688 209.703125 189.070312 209.523438 189.007812 209.261719 C 188.988281 209.175781 187.0625 200.566406 195.300781 197.875 C 195.601562 197.777344 195.925781 197.941406 196.023438 198.242188 C 196.121094 198.542969 195.957031 198.867188 195.65625 198.964844 C 188.429688 201.324219 190.050781 208.6875 190.121094 209 C 190.195312 209.308594 190.003906 209.613281 189.695312 209.6875 C 189.652344 209.695312 189.609375 209.703125 189.5625 209.703125"/></g><g><path fill="#2c2c2d" d="M 233.683594 178.53125 C 233.515625 178.53125 233.347656 178.457031 233.234375 178.3125 C 233.039062 178.0625 233.082031 177.703125 233.328125 177.507812 C 235.71875 175.632812 241.175781 176.089844 241.40625 176.109375 C 241.722656 176.136719 241.953125 176.414062 241.925781 176.730469 C 241.898438 177.046875 241.621094 177.277344 241.304688 177.25 C 241.253906 177.246094 236.070312 176.8125 234.035156 178.410156 C 233.933594 178.492188 233.808594 178.53125 233.683594 178.53125"/></g><g><path fill="#fd6107" d="M 148.308594 90.996094 C 148.085938 90.996094 147.863281 90.972656 147.640625 90.914062 C 143.800781 89.957031 136.84375 85.964844 137.964844 77.722656 C 138.386719 74.636719 139.667969 71.882812 140.910156 69.21875 C 143.328125 64.03125 144.441406 61.171875 141.25 57.867188 C 137.050781 53.519531 129.105469 52.988281 123.539062 56.6875 C 118.242188 60.207031 116.949219 66.292969 119.988281 73.386719 C 120.585938 74.777344 119.9375 76.390625 118.546875 76.988281 C 117.152344 77.585938 115.539062 76.941406 114.941406 75.546875 C 112.78125 70.507812 112.304688 65.785156 113.515625 61.507812 C 114.601562 57.675781 117.019531 54.429688 120.5 52.113281 C 128.300781 46.933594 139.148438 47.785156 145.199219 54.054688 C 151.15625 60.226562 148.234375 66.496094 145.886719 71.539062 C 144.769531 73.9375 143.714844 76.203125 143.40625 78.464844 C 142.679688 83.785156 148.335938 85.425781 148.984375 85.59375 C 150.453125 85.960938 151.34375 87.449219 150.972656 88.921875 C 150.664062 90.167969 149.539062 90.996094 148.308594 90.996094"/></g><g><path fill="#fd6107" d="M 163.542969 94.421875 C 163.542969 96.625 161.757812 98.410156 159.550781 98.410156 C 157.347656 98.410156 155.5625 96.625 155.5625 94.421875 C 155.5625 92.21875 157.347656 90.429688 159.550781 90.429688 C 161.757812 90.429688 163.542969 92.21875 163.542969 94.421875"/></g><g><path fill="#fd6107" d="M 239.730469 78.050781 C 239.71875 77.890625 239.726562 77.726562 239.753906 77.558594 C 240.238281 74.714844 242.761719 69.429688 248.820312 69.789062 C 251.089844 69.925781 253.164062 70.707031 255.171875 71.464844 C 259.082031 72.9375 261.226562 73.589844 263.453125 71.085938 C 266.386719 67.785156 266.335938 61.976562 263.335938 58.128906 C 260.480469 54.46875 255.980469 53.859375 250.984375 56.464844 C 250.003906 56.976562 248.792969 56.597656 248.28125 55.617188 C 247.773438 54.632812 248.152344 53.425781 249.132812 52.910156 C 252.679688 51.0625 256.09375 50.453125 259.273438 51.101562 C 262.121094 51.679688 264.617188 53.257812 266.492188 55.664062 C 270.695312 61.054688 270.675781 68.996094 266.449219 73.746094 C 262.285156 78.425781 257.558594 76.644531 253.761719 75.214844 C 251.953125 74.53125 250.246094 73.890625 248.582031 73.789062 C 244.671875 73.554688 243.789062 77.765625 243.699219 78.246094 C 243.515625 79.335938 242.480469 80.0625 241.390625 79.878906 C 240.464844 79.71875 239.796875 78.945312 239.730469 78.050781"/></g><g><path fill="#fd6107" d="M 238.082031 89.328125 C 236.476562 89.449219 235.078125 88.25 234.957031 86.644531 C 234.835938 85.039062 236.035156 83.640625 237.640625 83.519531 C 239.242188 83.398438 240.644531 84.597656 240.765625 86.203125 C 240.886719 87.808594 239.6875 89.207031 238.082031 89.328125"/></g><g><path fill="#fd6107" d="M 194.332031 61.972656 C 194.148438 61.742188 193.988281 61.492188 193.863281 61.214844 C 191.667969 56.46875 190.011719 45.992188 199.429688 40.320312 C 202.953125 38.195312 206.855469 37.234375 210.625 36.304688 C 217.96875 34.496094 221.835938 33.269531 222.59375 27.25 C 223.59375 19.320312 217.554688 10.699219 209.132812 8.03125 C 201.117188 5.496094 193.78125 9.207031 188.996094 18.214844 C 188.058594 19.984375 185.859375 20.65625 184.089844 19.71875 C 182.320312 18.777344 181.648438 16.582031 182.589844 14.8125 C 185.988281 8.414062 190.453125 4.003906 195.863281 1.710938 C 200.707031 -0.347656 206.054688 -0.550781 211.320312 1.117188 C 223.117188 4.851562 231.230469 16.730469 229.792969 28.15625 C 228.378906 39.402344 219.496094 41.589844 212.363281 43.351562 C 208.964844 44.1875 205.757812 44.980469 203.171875 46.535156 C 197.09375 50.199219 200.09375 57.382812 200.457031 58.191406 C 201.296875 60.007812 200.5 62.15625 198.679688 62.996094 C 197.140625 63.707031 195.351562 63.238281 194.332031 61.972656"/></g><g><path fill="#fd6107" d="M 203.433594 80.496094 C 201.164062 82.320312 197.84375 81.964844 196.015625 79.691406 C 194.191406 77.425781 194.550781 74.101562 196.820312 72.277344 C 199.089844 70.449219 202.40625 70.808594 204.234375 73.078125 C 206.0625 75.347656 205.703125 78.667969 203.433594 80.496094"/></g><g><path fill="#e8edfd" d="M 194.519531 384.578125 C 190.867188 384.578125 187.898438 387.546875 187.898438 391.199219 C 187.898438 394.851562 190.867188 397.820312 194.519531 397.820312 C 198.171875 397.820312 201.140625 394.851562 201.140625 391.199219 C 201.140625 387.546875 198.171875 384.578125 194.519531 384.578125 Z M 194.519531 398.964844 C 190.238281 398.964844 186.753906 395.480469 186.753906 391.199219 C 186.753906 386.917969 190.238281 383.433594 194.519531 383.433594 C 198.800781 383.433594 202.285156 386.917969 202.285156 391.199219 C 202.285156 395.480469 198.800781 398.964844 194.519531 398.964844"/></g><g><path fill="#e8edfd" d="M 232.40625 334.226562 C 227.433594 334.226562 223.386719 338.269531 223.386719 343.242188 C 223.386719 348.21875 227.433594 352.261719 232.40625 352.261719 C 237.378906 352.261719 241.421875 348.21875 241.421875 343.242188 C 241.421875 338.269531 237.378906 334.226562 232.40625 334.226562 Z M 232.40625 353.40625 C 226.800781 353.40625 222.242188 348.847656 222.242188 343.242188 C 222.242188 337.640625 226.800781 333.082031 232.40625 333.082031 C 238.007812 333.082031 242.570312 337.640625 242.570312 343.242188 C 242.570312 348.847656 238.007812 353.40625 232.40625 353.40625"/></g><g><path fill="#e8edfd" d="M 107.6875 318.644531 L 106.570312 318.898438 C 106.632812 319.335938 106.667969 319.777344 106.667969 320.226562 C 106.667969 325.199219 102.625 329.242188 97.652344 329.242188 C 93.835938 329.242188 90.566406 326.863281 89.253906 323.511719 C 88.875 323.613281 88.511719 323.722656 88.148438 323.820312 C 89.597656 327.65625 93.308594 330.390625 97.652344 330.390625 C 103.253906 330.390625 107.8125 325.828125 107.8125 320.226562 C 107.8125 319.6875 107.769531 319.160156 107.6875 318.644531"/></g><g><path fill="#e8edfd" d="M 129.300781 411.433594 C 125.121094 411.433594 121.722656 414.832031 121.722656 419.011719 C 121.722656 423.191406 125.121094 426.59375 129.300781 426.59375 C 133.480469 426.59375 136.882812 423.191406 136.882812 419.011719 C 136.882812 414.832031 133.480469 411.433594 129.300781 411.433594 Z M 129.300781 427.738281 C 124.488281 427.738281 120.574219 423.824219 120.574219 419.011719 C 120.574219 414.203125 124.488281 410.289062 129.300781 410.289062 C 134.113281 410.289062 138.027344 414.203125 138.027344 419.011719 C 138.027344 423.824219 134.113281 427.738281 129.300781 427.738281"/></g><g><path fill="#e8edfd" d="M 239.597656 408.078125 C 233.832031 408.078125 229.140625 412.769531 229.140625 418.535156 C 229.140625 424.300781 233.832031 428.992188 239.597656 428.992188 C 245.363281 428.992188 250.054688 424.300781 250.054688 418.535156 C 250.054688 412.769531 245.363281 408.078125 239.597656 408.078125 Z M 239.597656 430.136719 C 233.199219 430.136719 227.996094 424.929688 227.996094 418.535156 C 227.996094 412.136719 233.199219 406.929688 239.597656 406.929688 C 245.996094 406.929688 251.199219 412.136719 251.199219 418.535156 C 251.199219 424.929688 245.996094 430.136719 239.597656 430.136719"/></g><g><path fill="#e8edfd" d="M 129.78125 320.796875 C 126.128906 320.796875 123.160156 323.769531 123.160156 327.417969 C 123.160156 331.070312 126.128906 334.039062 129.78125 334.039062 C 133.429688 334.039062 136.402344 331.070312 136.402344 327.417969 C 136.402344 323.769531 133.429688 320.796875 129.78125 320.796875 Z M 129.78125 335.183594 C 125.5 335.183594 122.015625 331.703125 122.015625 327.417969 C 122.015625 323.136719 125.5 319.652344 129.78125 319.652344 C 134.0625 319.652344 137.546875 323.136719 137.546875 327.417969 C 137.546875 331.703125 134.0625 335.183594 129.78125 335.183594"/></g><g><path fill="#e8edfd" d="M 98.128906 347.652344 C 95.273438 347.652344 92.949219 349.976562 92.949219 352.835938 C 92.949219 355.691406 95.273438 358.015625 98.128906 358.015625 C 100.988281 358.015625 103.3125 355.691406 103.3125 352.835938 C 103.3125 349.976562 100.988281 347.652344 98.128906 347.652344 Z M 98.128906 359.164062 C 94.640625 359.164062 91.804688 356.324219 91.804688 352.835938 C 91.804688 349.347656 94.640625 346.507812 98.128906 346.507812 C 101.617188 346.507812 104.457031 349.347656 104.457031 352.835938 C 104.457031 356.324219 101.617188 359.164062 98.128906 359.164062"/></g><g><path fill="#e8edfd" d="M 148.484375 357.246094 C 144.832031 357.246094 141.863281 360.214844 141.863281 363.863281 C 141.863281 367.515625 144.832031 370.484375 148.484375 370.484375 C 152.132812 370.484375 155.105469 367.515625 155.105469 363.863281 C 155.105469 360.214844 152.132812 357.246094 148.484375 357.246094 Z M 148.484375 371.632812 C 144.199219 371.632812 140.71875 368.148438 140.71875 363.863281 C 140.71875 359.582031 144.199219 356.097656 148.484375 356.097656 C 152.765625 356.097656 156.25 359.582031 156.25 363.863281 C 156.25 368.148438 152.765625 371.632812 148.484375 371.632812"/></g><g><path fill="#e8edfd" d="M 290.984375 370.65625 C 290.355469 370.859375 289.6875 370.964844 288.992188 370.964844 C 285.34375 370.964844 282.371094 367.996094 282.371094 364.34375 C 282.371094 361.414062 284.285156 358.925781 286.921875 358.054688 C 286.800781 357.695312 286.683594 357.332031 286.558594 356.96875 C 283.464844 357.988281 281.226562 360.910156 281.226562 364.34375 C 281.226562 368.625 284.707031 372.113281 288.992188 372.113281 C 289.804688 372.113281 290.59375 371.984375 291.328125 371.746094 C 291.21875 371.398438 291.105469 371.03125 290.984375 370.65625"/></g><g><path fill="#e8edfd" d="M 172.460938 442.125 C 168.546875 442.125 165.359375 445.308594 165.359375 449.226562 C 165.359375 453.140625 168.546875 456.324219 172.460938 456.324219 C 176.375 456.324219 179.5625 453.140625 179.5625 449.226562 C 179.5625 445.308594 176.375 442.125 172.460938 442.125 Z M 172.460938 457.46875 C 167.914062 457.46875 164.214844 453.773438 164.214844 449.226562 C 164.214844 444.679688 167.914062 440.980469 172.460938 440.980469 C 177.007812 440.980469 180.707031 444.679688 180.707031 449.226562 C 180.707031 453.773438 177.007812 457.46875 172.460938 457.46875"/></g><g><path fill="#e8edfd" d="M 263.097656 318.402344 C 260.769531 318.402344 258.871094 320.292969 258.871094 322.621094 C 258.871094 324.953125 260.769531 326.847656 263.097656 326.847656 C 265.425781 326.847656 267.320312 324.953125 267.320312 322.621094 C 267.320312 320.292969 265.425781 318.402344 263.097656 318.402344 Z M 263.097656 327.992188 C 260.136719 327.992188 257.726562 325.582031 257.726562 322.621094 C 257.726562 319.664062 260.136719 317.253906 263.097656 317.253906 C 266.054688 317.253906 268.464844 319.664062 268.464844 322.621094 C 268.464844 325.582031 266.054688 327.992188 263.097656 327.992188"/></g><g><path fill="#e8edfd" d="M 246.789062 375.46875 C 242.875 375.46875 239.691406 378.652344 239.691406 382.566406 C 239.691406 386.484375 242.875 389.667969 246.789062 389.667969 C 250.707031 389.667969 253.890625 386.484375 253.890625 382.566406 C 253.890625 378.652344 250.707031 375.46875 246.789062 375.46875 Z M 246.789062 390.8125 C 242.242188 390.8125 238.546875 387.113281 238.546875 382.566406 C 238.546875 378.019531 242.242188 374.320312 246.789062 374.320312 C 251.339844 374.320312 255.035156 378.019531 255.035156 382.566406 C 255.035156 387.113281 251.339844 390.8125 246.789062 390.8125"/></g><g><path fill="#e8edfd" d="M 184.929688 335.664062 C 182.070312 335.664062 179.746094 337.988281 179.746094 340.847656 C 179.746094 343.703125 182.070312 346.027344 184.929688 346.027344 C 187.785156 346.027344 190.109375 343.703125 190.109375 340.847656 C 190.109375 337.988281 187.785156 335.664062 184.929688 335.664062 Z M 184.929688 347.175781 C 181.441406 347.175781 178.601562 344.335938 178.601562 340.847656 C 178.601562 337.359375 181.441406 334.519531 184.929688 334.519531 C 188.417969 334.519531 191.257812 337.359375 191.257812 340.847656 C 191.257812 344.335938 188.417969 347.175781 184.929688 347.175781"/></g></g></svg>