<svg width="90.4" height="92.3" viewBox="4.4 2.7 90.4 92.3" xmlns="http://www.w3.org/2000/svg" xmlns:xlink="http://www.w3.org/1999/xlink" overflow="hidden"><g id="change1_1"><path d="M73 59.3C78.9 55.1 82.9 47.5 82.9 39 82.9 25.8 73.5 15 61.9 15 57.3 15 53.1 16.7 49.6 19.6 45.3 8.7 33.4 2.7 22 5.8 16.1 7.5 11.2 11.3 8.2 16.7 5.2 22.1 4.4 28.2 6.1 34.2 7.7 40.1 11.5 45 16.9 48 20.4 50 24.2 51 28.1 51 30.2 51 32.3 50.7 34.3 50.1 35.8 49.7 37.3 49.1 38.7 48.4 40.1 49.2 41.7 49.8 43.2 50.2 44.9 53.9 47.5 57.1 50.6 59.3 38.2 61.3 28.7 72 28.7 85L28.7 89C28.7 92.3 31.4 95 34.7 95L88.7 95C92 95 94.7 92.3 94.7 89L94.7 85C94.8 72.1 85.4 61.3 73 59.3ZM39.9 44.4C39.3 44 38.5 44 37.8 44.3 36.4 45.1 34.9 45.8 33.3 46.2 23.2 49 12.7 43.1 9.9 33 8.5 28.1 9.1 23 11.6 18.6 14.1 14.2 18.1 11 23 9.6 24.7 9.2 26.5 9 28.1 9 36.4 9 44.1 14.5 46.4 22.9 47.7 27.6 47.2 32.5 44.9 36.8 44.6 37.4 44.6 38.1 44.9 38.7 46.4 41.5 48.3 44 50.5 46.3 46.9 47.2 43 46.5 39.9 44.4ZM48.1 50.6C49.4 50.6 50.8 50.4 52.1 50L55.1 49.2C55.8 49 56.4 48.4 56.5 47.7 56.7 47 56.4 46.2 55.8 45.7 53.1 43.4 50.8 40.7 49 37.6 51 33.3 51.6 28.4 50.8 23.8 53.8 20.8 57.6 18.9 61.9 18.9 71.3 18.9 78.9 27.9 78.9 38.9 78.9 49.9 71.3 58.9 61.9 58.9 56.2 59 51.1 55.7 48.1 50.6ZM90.8 89C90.8 90.1 89.9 91 88.8 91L34.8 91C33.7 91 32.8 90.1 32.8 89L32.8 85C32.8 72.9 42.7 63 54.8 63L68.8 63C80.9 63 90.8 72.9 90.8 85L90.8 89Z"/><path d="M29.8 14 24.8 14C21.5 14 18.8 16.7 18.8 20 18.8 21.1 19.7 22 20.8 22 21.9 22 22.8 21.1 22.8 20 22.8 18.9 23.7 18 24.8 18L29.8 18C31.5 18 32.8 19.3 32.8 21 32.8 22.6 31.5 24 29.8 24L27.8 24C26.7 24 25.8 24.9 25.8 26L25.8 32C25.8 33.1 26.7 34 27.8 34 28.9 34 29.8 33.1 29.8 32L29.8 28C33.7 28 36.8 24.9 36.8 21 36.8 17.1 33.7 14 29.8 14Z"/><circle cx="27.8" cy="40" r="2"/></g></svg>