<?xml version="1.0" encoding="UTF-8" standalone="no"?><svg xmlns="http://www.w3.org/2000/svg" xmlns:xlink="http://www.w3.org/1999/xlink" contentScriptType="text/ecmascript" fill="#000000" width="1988.8" zoomAndPan="magnify" contentStyleType="text/css" viewBox="-30.0 94.3 1988.8 1405.9" height="1405.9" preserveAspectRatio="xMidYMid meet" version="1"><g id="change1_1"><path fill="#fcf5f0" d="M160.1,575.2c88.8-231.7,349.4-350.3,535.8-381c302.8-39,707-99.9,980.2,80.8 c282.7,224.3,226.2,771.8-77.2,941.9C1170.2,1482.4-30,1380.6,160.1,575.2"/></g><g><g><g id="change2_1"><path fill="#ffffff" d="M1383.4,321.1h-196.7c-28.1,0-50.9,30.3-50.9,67.7v72c0,37.4,22.8,67.7,50.9,67.7h173.4l13.7,18 l17.8,23.2l6.2-32.1l2.5-13c19.8-9.3,34-34.3,34-63.8v-72C1434.3,351.4,1411.5,321.1,1383.4,321.1z"/></g><g id="change3_1"><path fill="#021b23" d="M1276.6,464.3c-3.8,0-7.5-1.6-10.2-4.4l-30.5-32.8c-5.2-5.6-4.9-14.4,0.7-19.6 c5.6-5.2,14.4-4.9,19.6,0.7l19.1,20.5l37.5-51c4.5-6.2,13.2-7.5,19.4-3c6.2,4.5,7.5,13.2,3,19.4l-47.4,64.5 c-2.5,3.3-6.3,5.4-10.4,5.6C1277.1,464.3,1276.9,464.3,1276.6,464.3z"/></g></g><g><g id="change2_2"><path fill="#ffffff" d="M1072.1,530.2H865.8c-35.1,0-63.6,30.3-63.6,67.6v50c0,12.7,3.3,24.7,9.1,34.8l-2.9,13.4l-6.2,28.9 l26.6-8.7l15-4.9c6.8,2.7,14.3,4.2,22,4.2h206.3c35.1,0,63.6-30.3,63.6-67.6v-50C1135.8,560.5,1107.3,530.2,1072.1,530.2z"/></g><g id="change3_2"><circle fill="#021b23" r="16.3" cx="910.3" cy="621.9"/></g><g id="change3_3"><circle fill="#021b23" r="16.3" cx="968.9" cy="621.9"/></g><g id="change3_4"><circle fill="#021b23" r="16.3" cx="1027.6" transform="rotate(-26.565 1027.63 621.897)" cy="621.9"/></g></g></g><g><g><g id="change3_11"><path fill="#021b23" d="M1338.7,742.9c-4.8-137.3,86.8-195.8,208.4-165.4c76,19,84.8,133.7,108.9,205 c12.8,52.4,58.5,60.9,62.8,127.4c2,31.1-14.9,63.9,5.3,88.3c120.2,175.2-8,178.6-163.9,210.7c-155.6,42.7-333.7-3.9-364.8-150.8 c-6.4-41.5,87.5-97.6,78.1-148.9C1254.4,803.8,1339.9,774.8,1338.7,742.9z"/></g><g id="change4_4"><path fill="#f3cabe" d="M1573.1,746.9c-3.2-0.6-6.3,0.2-9.3,1.7c-0.5-0.7-1-1.4-1.6-2c-17.6-17.1-30.5-67.9-34.8-80.2 c0,0-105.3-29.5-135.6,44c-25.2,41.3-22.6,109.1,23.1,157.2c9.1,9.5,5.8,41.4,5,43.9c-3.3,9.6-14.7,15.6-14.7,15.6 s27.9,45.7,64,49.5c51.2,5.4,99.9-19.9,99.6-33.2c-0.2-8.4-20.3-7.5-34.6-28.2c-1.3-1.9-9.6-16.6-10.4-32.9 c-1.2-23.2,10.2-17.2,29-53.5c3.4-6.6,7.9-19.2,11.1-32.7c0.3,0.1,0.7,0.2,1,0.2c9.8,1.7,19.6-8.1,21.9-21.8 C1589,761,1582.9,748.6,1573.1,746.9z"/></g><g id="change4_5"><path fill="#f3cabe" d="M1122.7,1005.5c6-9.5-11.8-58.4-23.6-78.9c-5.6-9.8-5-32.4,1.5-57.5c2-7.7,7.4-15.7,20.2-19.1 c14.3-3.8,29.3,9,37.5,3.2c6.4-4.5,3.7-19.4,10.7-42.7c5-16.5,6.7-17,10.5-18.2c5.9-1.8,10.8,2.3,10,10.3 c-1.1,12.2,0.3-1.6-3.1,24.7c-3.5,26.8,2.6,24.7,2.4,61.5c-0.1,23.5-13.8,46.4-16.5,64.3c-3.6,23.7,2.1,48.8,2.1,48.8 c-4.6,0.5-27.2,9.1-29.9,8.5"/></g><g id="change5_1"><path fill="#e0a497" d="M1164.7,874.9c-2.2,0-4.2-0.3-6.5-0.6c-1.4-0.2-2.9-0.4-4.5-0.6c-5.4-0.5-14.2-2.5-22.8-4.3 c-4.3-0.9-8.3-1.8-11.6-2.4c-1.3-0.3-2.2-1.5-1.9-2.8c0.3-1.3,1.5-2.2,2.8-1.9c3.4,0.6,7.4,1.5,11.7,2.5c8,1.7,17.2,3.7,22.3,4.2 c1.7,0.2,3.2,0.4,4.7,0.6c5.2,0.8,8.6,1.3,13.8-1.7c0.3-0.4,0.9-2,0.5-3.7c-0.4-1.6-1.6-2.7-3.6-3.3c-4.7-1.4-9.2-2.2-13.5-2.9 c-3.3-0.6-6.3-1.1-9.2-1.9c-1.7-0.4-3.3-0.9-4.8-1.3c-9.2-2.5-15.8-4.3-24.2-1.1c-1.2,0.5-2.6-0.1-3.1-1.4 c-0.5-1.2,0.1-2.6,1.4-3.1c9.9-3.8,17.5-1.7,27.2,0.9c1.5,0.4,3.1,0.9,4.8,1.3c2.7,0.7,5.7,1.2,8.8,1.8c4.2,0.7,9,1.6,14,3 c4,1.1,6.6,4,7.2,7.8c0.5,3.2-0.7,6.6-2.8,7.9C1171.3,874.2,1167.9,874.9,1164.7,874.9z M1172.7,867.8L1172.7,867.8L1172.7,867.8z"/></g><g id="change5_2"><path fill="#e0a497" d="M1162.2,889.3c-0.1,0-0.3,0-0.4,0c-12.9-0.2-32.9-3.3-45.2-6.2c-1.3-0.3-2.1-1.6-1.8-2.9 c0.3-1.3,1.6-2.1,2.9-1.8c12.1,2.8,31.7,5.8,44.2,6c5.6,0.1,8.8-2,9-3.5c0.1-1.6-3.1-4.6-12.4-6.2c-1.3-0.2-2.2-1.5-2-2.8 c0.2-1.3,1.5-2.2,2.8-2c4,0.7,17.1,3.6,16.4,11.4C1175.2,886.1,1169.7,889.3,1162.2,889.3z"/></g><g id="change5_3"><path fill="#e0a497" d="M1159.6,904.5c-1,0-2-0.1-3.5-0.3c-1.8-0.2-4.5-0.5-8.9-0.9l-1.4-0.1c-9.3-0.8-22.1-1.9-31.5-3.5 c-1.3-0.2-2.2-1.5-2-2.8s1.5-2.2,2.8-2c9.2,1.6,21.9,2.7,31.1,3.5l1.4,0.1c4.5,0.3,7.2,0.7,9.1,0.9c1.8,0.2,2.7,0.3,3.5,0.2 c1.9-0.2,5.1-0.8,5.1-3.1c0-2.5-3.4-6.6-8.8-7.2c-1.3-0.1-2.3-1.3-2.1-2.7c0.1-1.3,1.3-2.3,2.7-2.1c7.2,0.8,13.2,6.3,13.1,12 c0,1.6-0.7,7.1-9.5,7.9C1160.3,904.5,1159.9,904.5,1159.6,904.5z"/></g><g id="change5_4"><path fill="#e0a497" d="M1151.4,919.3c-2.8,0-5.6-0.4-8.5-0.8c-1.6-0.2-3.2-0.4-4.8-0.6c-3-0.3-6.1-0.4-9.1-0.6 c-6-0.3-12.2-0.6-17.9-2.1c-1.3-0.3-2.1-1.7-1.7-2.9c0.3-1.3,1.7-2.1,2.9-1.7c5.3,1.4,11.2,1.7,16.9,1.9c3.1,0.1,6.2,0.3,9.3,0.6 c1.7,0.2,3.4,0.4,5,0.6c3.1,0.4,6.1,0.8,8.9,0.7c3.5-0.1,6.8-4.1,6.8-7c0-2.7-3.1-3.4-5.8-3.5c-1.3-0.1-2.4-1.2-2.3-2.5 c0.1-1.3,1.2-2.4,2.5-2.3c9.7,0.4,10.4,6.5,10.4,8.4c0,5.8-5.7,11.6-11.4,11.8C1152.2,919.3,1151.8,919.3,1151.4,919.3z"/></g><g id="change6_1"><path fill="#e2ac2c" d="M1697.1,1016.3c-20.9-68.7-151.6-89.2-151.6-89.2c-69.8,90.4-140.3,0-140.3,0 c-130,27.5-148.9,154.9-148.9,154.9s-28.5-25.3-78.1-100.6l-60.5,10.1c7.9,46.1,37.6,239.7,113.7,302 c28.4,23.2,43.9,33.5,43.9,33.5l-9.9,172.7c0,0,391.9,0.5,488.1,0.1C1749.4,1487.8,1748.5,1117.2,1697.1,1016.3z"/></g><g id="change3_12"><path fill="#021b23" d="M1432.4,753.6c-0.3,5.7-5.1,10-10.7,9.8c-5.7-0.3-10-5.1-9.8-10.7c0.3-5.7,5.1-10,10.7-9.8 C1428.2,743.2,1432.6,748,1432.4,753.6z"/></g><g id="change3_13"><circle fill="#021b23" r="10.2" cx="1504.4" cy="760.7"/></g><g id="change3_14"><path fill="#021b23" d="M1534.7,736.1c-0.6,0-1.1-0.1-1.6-0.4c-9.6-5.7-27.3-7.9-38-4.9c-1.7,0.5-3.5-0.5-4-2.2 c-0.5-1.7,0.5-3.5,2.2-4c12.3-3.5,32-1,43,5.5c1.5,0.9,2,2.9,1.1,4.4C1536.9,735.6,1535.8,736.1,1534.7,736.1z"/></g><g id="change3_15"><path fill="#021b23" d="M1439.1,724.8c-0.4,0-0.8-0.1-1.2-0.2c-10-4.1-21.5-4.5-31.7-1.2c-1.7,0.6-3.5-0.4-4.1-2.1 c-0.6-1.7,0.4-3.5,2.1-4.1c11.8-3.9,24.6-3.4,36.1,1.4c1.6,0.7,2.4,2.6,1.8,4.2C1441.6,724.1,1440.4,724.8,1439.1,724.8z"/></g><g id="change3_16"><path fill="#021b23" d="M1459.1,793.5c-0.3,0-0.6,0-0.8-0.1l-0.2,0c-2.4-0.6-5.1-1.4-7.3-3.3c-3-2.5-4.3-6.2-3.4-9.4 c0.9-3.2,3.5-4.9,5.6-6.3c0.5-0.3,0.9-0.6,1.4-0.9c3.2-2.3,5.3-6.2,5.5-10.1c0.1-1.8,1.6-3.2,3.3-3.1c1.8,0.1,3.2,1.6,3.1,3.3 c-0.2,5.8-3.4,11.6-8.1,15.1c-0.5,0.4-1.1,0.7-1.6,1.1c-1.3,0.9-2.7,1.8-3,2.6c-0.2,0.8,0.4,2,1.4,2.8c1.2,1,3,1.5,4.9,2l0.2,0 c1.7,0.5,2.7,2.2,2.3,3.9C1461.8,792.6,1460.5,793.5,1459.1,793.5z"/></g><g id="change2_4"><path fill="#ffffff" d="M1437,815.6c15.8,1.5,33.2,0.9,49.4,1.3l0,0c-3.7,8.4-7.3,20.8-15.7,23.7 C1450.3,847.7,1436.5,833,1437,815.6"/></g><g id="change2_5"><path fill="#ffffff" d="M1383.2,1499.8c101.1,0.1,178.9,0.1,178.9,0.1c0-45.9,4.3-382.8,4.3-382.8l-5.1-186.9l-15.8-3.1 c0,0-27.1,29.3-68.1,30.7c-46.5,1.6-72.2-30.7-72.2-30.7s-6.7,1.5-18.4,4.8"/></g><g id="change7_2"><path fill="#e6b8ac" d="M1416.6,869.9c31.8,22.6,79.8,6,79.8,6c-17,20.9-62.3,19.2-75.5,11.3c0,0-0.7-5.2-1.6-9.1 C1418.6,875,1417,870.7,1416.6,869.9z"/></g></g></g><g><g id="change3_5"><path fill="#021b23" d="M706.8,673c10.9-13.3,17.7-38.7,14-56c-5.1-23.8,17.8-43.8,8.3-69c-8.8-23.4-14.3-26.2-31.7-34.3 c-18.5-8.6-8.2-21.5-32.1-31c-44.4-17.8-53.5,9.6-105,1.1c-20.8-3.4-42,0-74.5,19.5c-43.5,26.1-51.3,40-55.6,64.3 c-3.6,20.2-21.1,34-19.4,52.6c4.5,49.1,19.3,119,96.1,142.2"/></g><g id="change4_1"><path fill="#f3cabe" d="M505.3,759.2c-21.7-41.7,0.3-94.6,19.2-110.8c37-31.6,26.9-63.8,26.9-63.8s47.9-13.1,71-7 c18.2,4.8,27.9-4.8,41.2-4.3c17.1,0.6,30.9,38,38.3,56.9c7.7,19.6,9,47,9.1,77.4c0.3,47.3-20.5,84.1-41.6,101.4 c-13.8,11.3-13.4,28.1-14,44.4c-0.9,22.7,5.6,37.6,5.6,37.6s9.7,42-32,53.6c-19.3,5.3-32,7.9-47.7,6.1 c-21.5-2.5-50.7-61.8-50.7-61.8s8.2-30.1,0.9-59.7c-5.1-20.8-7.2-26-11.5-37.4C517.4,784.5,512.9,773.7,505.3,759.2z"/></g><g id="change3_6"><path fill="#021b23" d="M659.8,681.9c0.3,5.9,5.3,10.5,11.2,10.2s10.5-5.3,10.2-11.2s-5.3-10.5-11.2-10.2 C664.2,671,659.5,676,659.8,681.9z"/></g><g id="change3_7"><path fill="#021b23" d="M567.3,686.6c0.3,5.9,5.3,10.5,11.2,10.2s10.5-5.3,10.2-11.2s-5.3-10.5-11.2-10.2 C571.7,675.7,567.1,680.7,567.3,686.6z"/></g><g id="change4_2"><path fill="#f3cabe" d="M955.3,982.4c1.6-11.6,32.4-108.4,33-112.4c2.7-18.9-2.9-17-8.1-1.8c-5.9,17.6-15,32.3-13.9,22.3 c4.1-38.4,5.2-75.3,0.2-75.3c-8.8,0-9.8,75.2-16.2,69.1c-4.1-4-0.1-62.6-7.6-65c-9-2.8-6,70.5-12.5,67.2c-6-3.1-2-62.3-6.9-62.3 c-9.1,0-8.6,36.7-13.6,74.7c-2.2,17-6.7,30.3-11.7,25.5c-11.3-10.9-11.6-41.5-15.6-41.8c-5.6-0.5-9,37.6-2.8,55.2 c9.1,25.9,13.2,28.3,14.3,42c1.3,15.5-0.7,28.8-0.7,28.8s52.9,22.3,57.6,4C951.8,1008.2,954.2,990.3,955.3,982.4z"/></g><g id="change8_1"><path fill="#aabdc7" d="M530.7,888.8c-94,8.4-146.4,50.3-185.1,106.4c-85.3,123.3-89,503.4-89,503.4h597.7 c0,0,2.8-135.1,21.9-155.6c60.7-65.1,72.8-260.5,79.7-335.1c-12.5-3.5-69.6-12.3-69.6-12.3s-6.3,10.2-28.1,41.1 c-11.8,16.6-32.5,41.1-32.5,41.1C797.5,930.5,661.2,891,661.2,891c-12.6,16.3-50.7,51-50.7,51S564.5,912.5,530.7,888.8"/></g><g id="change3_8"><path fill="#021b23" d="M549.8,655.1c-1.1,0-2.1-0.6-2.7-1.6c-0.9-1.5-0.4-3.5,1.1-4.4c11.5-6.8,32.1-9.5,45-5.8 c1.7,0.5,2.7,2.2,2.2,3.9c-0.5,1.7-2.2,2.7-3.9,2.2c-11.3-3.2-30-0.8-40,5.2C550.9,654.9,550.4,655.1,549.8,655.1z"/></g><g id="change3_9"><path fill="#021b23" d="M649.5,646.7c-1.3,0-2.4-0.7-2.9-2c-0.7-1.6,0.1-3.5,1.7-4.2c11.8-4.9,25.5-5.4,37.7-1.5 c1.7,0.5,2.6,2.3,2.1,4c-0.5,1.7-2.3,2.6-4,2.1c-10.7-3.5-22.9-3-33.3,1.3C650.3,646.6,649.9,646.7,649.5,646.7z"/></g><g id="change3_10"><path fill="#021b23" d="M633.3,724.2c-1.4,0-2.6-0.9-3-2.3c-0.5-1.7,0.4-3.5,2.1-4l0.2-0.1c2-0.6,4-1.2,5.3-2.3l0.1-0.1 c1-0.7,1.6-2,1.3-2.8c-0.3-1-1.7-1.9-3.1-2.8c-0.6-0.4-1.2-0.8-1.8-1.2c-5-3.5-8.2-9.4-8.5-15.6c-0.1-1.8,1.3-3.2,3.1-3.3 c1.8-0.1,3.2,1.3,3.3,3.1c0.2,4.2,2.4,8.3,5.8,10.7c0.6,0.4,1.1,0.7,1.6,1.1c2.1,1.4,4.8,3.1,5.7,6.3c1,3.4-0.5,7.4-3.6,9.7 c-2.3,1.8-5,2.6-7.4,3.3l-0.2,0.1C633.9,724.1,633.6,724.2,633.3,724.2z"/></g><g id="change2_3"><path fill="#ffffff" d="M604.7,749.4c15.8-0.1,32.8-2.4,48.8-3.6l0,0l0,0c-1,2.6-1.8,5.8-2.7,8.5 c-2.4,6.6-5.3,13.2-10.5,16.5c-2.8,1.8-6.1,2.3-9.3,2.2c-5.9-0.1-11.9-1.7-16.9-5.7C609.2,763.4,605.4,756.8,604.7,749.4"/></g><g id="change7_1"><path fill="#e6b8ac" d="M663.7,815.2c-30.2,14.2-71,4-85.6,2c18,15.1,64.4,17.6,79,15.6c0,0,0.8-4,1.5-6.8 C659.1,824,663.7,815.2,663.7,815.2z"/></g><g id="change4_3"><ellipse rx="24" ry="28.5" fill="#f3cabe" cx="494.2" cy="692.9"/></g><g id="change9_1"><path fill="#484e51" d="M552.6,989.8c-0.3,0-0.6,0-0.9-0.1c-1-0.3-1.9-1-2.3-2c-4.1-9.1-11.8-22.9-20.6-38.9 c-8.8-16-18.9-34.1-28.9-53.7c-0.9-1.7-0.2-3.9,1.5-4.8c1.7-0.9,3.9-0.2,4.8,1.5c10,19.4,20,37.5,28.8,53.5 c8.1,14.6,14.7,26.5,19,35.5c6.7-4.8,12.9-8.9,18.9-13c11.7-7.8,22.7-15.2,35.2-25.8c1.5-1.3,3.7-1.1,5,0.4c1.3,1.5,1.1,3.7-0.4,5 c-12.8,10.9-24,18.4-35.8,26.4c-7,4.7-14.2,9.5-22.2,15.3C554.1,989.6,553.3,989.8,552.6,989.8z"/></g><g id="change9_2"><path fill="#484e51" d="M678.3,983c-0.5,0-1-0.1-1.5-0.3c-23.5-11.1-44.2-22-68.1-34.8c-1.7-0.9-2.4-3.1-1.4-4.8 c0.9-1.7,3.1-2.4,4.8-1.4c22.3,12,41.9,22.2,63.5,32.6c2.4-14.2,3.4-26.8,4.5-40c0.8-9.5,1.6-19.4,3-30.2c0.2-1.9,2-3.3,4-3.1 c1.9,0.2,3.3,2,3.1,4c-1.3,10.7-2.2,20.4-2.9,29.9c-1.2,14.8-2.4,28.7-5.4,45.2c-0.2,1.1-0.9,2-1.9,2.5 C679.4,982.9,678.9,983,678.3,983z"/></g><g id="change9_3"><path fill="#484e51" d="M606.8 944.7H613.9V1498.6H606.8z"/></g><g id="change9_4"><path fill="#484e51" d="M599.9 915.6H672.8V922.7H599.9z" transform="rotate(-44.498 636.4 919.135)"/></g><g id="change9_5"><path fill="#484e51" d="M610.4,948.3c-0.7,0-1.4-0.2-2-0.6l-79.7-55.9c-1.6-1.1-2-3.3-0.9-4.9c1.1-1.6,3.3-2,4.9-0.9 l79.7,55.9c1.6,1.1,2,3.3,0.9,4.9C612.6,947.7,611.5,948.3,610.4,948.3z"/></g><path stroke-linecap="round" fill="none" stroke-linejoin="round" d="M503 893.6L530.7 888.8" stroke="#484e51" stroke-width="7.1" stroke-miterlimit="10"/><g id="change9_6"><path fill="#484e51" d="M686.6,906c-0.4,0-0.8-0.1-1.2-0.2l-24.2-8.8c-1.8-0.7-2.8-2.7-2.1-4.5c0.7-1.8,2.7-2.8,4.5-2.1 l24.2,8.8c1.8,0.7,2.8,2.7,2.1,4.5C689.4,905.1,688.1,906,686.6,906z"/></g></g></svg>